<?xml version="1.0" standalone="no"?>
<!DOCTYPE svg PUBLIC "-//W3C//DTD SVG 20010904//EN"
 "http://www.w3.org/TR/2001/REC-SVG-20010904/DTD/svg10.dtd">
<svg version="1.0" xmlns="http://www.w3.org/2000/svg"
 width="500.000000pt" height="500.000000pt" viewBox="0 0 500.000000 500.000000"
 preserveAspectRatio="xMidYMid meet">

<g transform="translate(0.000000,500.000000) scale(0.100000,-0.100000)"
fill="#000000" stroke="none">
<path d="M1438 4546 c-21 -13 -83 -48 -140 -76 -56 -29 -174 -94 -263 -145
-88 -51 -251 -142 -362 -203 -111 -61 -234 -131 -273 -156 -39 -25 -73 -46
-76 -46 -3 0 -36 -18 -72 -39 -112 -65 -106 -35 -110 -581 -3 -489 4 -631 36
-702 32 -74 221 -280 521 -571 257 -249 493 -431 595 -458 52 -14 133 -6 182
19 101 50 270 146 336 190 40 27 141 91 223 142 83 52 186 120 230 152 l80 59
7 -98 c35 -481 64 -766 89 -860 26 -102 72 -185 149 -267 135 -144 316 -256
470 -292 172 -39 635 -23 890 32 230 49 666 165 724 192 71 32 137 102 155
163 20 67 25 221 12 395 -6 88 -21 348 -31 579 -20 425 -24 458 -62 575 -43
132 -253 435 -363 525 -24 20 -88 55 -142 77 l-98 40 -115 -5 c-195 -10 -989
-111 -1229 -157 -29 -5 -57 -10 -61 -10 -5 0 -7 123 -7 273 1 149 -2 294 -6
320 -9 54 -48 105 -112 145 -43 27 -254 210 -475 411 -173 158 -394 332 -468
368 -42 20 -76 29 -127 31 -62 3 -74 1 -107 -22z m274 -132 c125 -93 253 -201
428 -360 80 -72 181 -160 225 -195 98 -77 180 -160 188 -188 7 -29 -44 -84
-69 -74 -10 4 -20 0 -25 -10 -10 -17 -140 -94 -344 -204 -227 -123 -299 -156
-329 -154 -21 1 -27 -2 -23 -13 4 -11 -17 -27 -71 -57 -42 -23 -111 -64 -152
-92 -85 -57 -185 -107 -214 -107 -44 0 -109 46 -207 147 -220 226 -269 272
-345 329 -44 32 -104 80 -133 107 -30 27 -112 92 -182 144 -86 65 -130 104
-134 121 -3 13 -5 25 -3 26 2 2 39 22 83 46 44 24 166 96 270 160 233 143 294
179 460 265 72 38 171 92 220 120 117 68 109 65 192 61 71 -3 72 -3 165 -72z
m-1338 -773 c136 -83 287 -200 367 -285 42 -45 118 -117 170 -161 51 -44 104
-93 119 -110 14 -16 57 -63 96 -105 39 -41 92 -105 118 -142 l47 -67 -2 -498
c-2 -465 -3 -500 -21 -535 -23 -47 -55 -50 -114 -10 -67 44 -291 257 -590 560
-218 220 -288 297 -310 340 l-29 57 -3 493 -3 492 23 10 c38 15 47 12 132 -39z
m3782 -566 c23 -9 39 -26 49 -48 15 -37 36 -190 60 -452 9 -93 25 -240 36
-325 58 -458 76 -694 59 -784 -11 -61 -16 -70 -50 -92 -60 -40 -139 -67 -156
-53 -19 15 -65 3 -58 -15 7 -18 -19 -26 -241 -71 -191 -38 -512 -86 -745 -111
-186 -19 -308 -15 -452 16 l-107 23 -16 69 c-8 37 -20 128 -25 201 -25 328
-32 406 -56 617 -14 124 -34 285 -45 358 -43 295 -20 371 134 449 66 33 238
76 407 102 294 44 755 101 906 111 225 15 248 16 257 18 4 1 23 -5 43 -13z
m319 -255 c45 -69 113 -178 150 -242 l67 -117 8 -317 c6 -232 5 -323 -4 -336
-8 -14 -8 -21 0 -26 6 -4 14 -50 17 -102 6 -88 5 -93 -9 -67 -8 15 -19 27 -24
27 -33 0 -38 -197 -7 -271 16 -37 40 -63 49 -54 10 10 19 -195 10 -211 -8 -14
-14 -9 -40 27 -16 24 -53 73 -81 108 -63 79 -134 226 -155 323 -25 118 -85
476 -118 703 -26 183 -30 247 -34 495 l-5 285 46 -50 c26 -27 84 -106 130
-175z"/>
<path d="M1410 4422 c0 -9 -13 -30 -30 -45 -16 -16 -30 -39 -30 -51 0 -12 -5
-27 -12 -34 -9 -9 -9 -15 3 -24 9 -7 23 -25 32 -40 25 -40 73 -61 139 -61 75
1 122 18 153 54 74 89 -17 199 -163 199 -35 0 -62 4 -62 10 0 6 -7 10 -15 10
-8 0 -15 -8 -15 -18z"/>
<path d="M1026 4175 c-10 -8 -23 -12 -28 -9 -14 9 -57 -24 -78 -59 -43 -69
-12 -153 70 -194 81 -41 175 -20 240 53 57 66 32 166 -53 204 -50 23 -124 25
-151 5z"/>
<path d="M1614 3997 c3 -10 6 -25 6 -33 0 -8 7 -14 15 -14 21 0 19 14 -6 41
-16 19 -19 20 -15 6z"/>
<path d="M610 3948 c-118 -61 -129 -197 -20 -255 54 -29 148 -31 200 -5 103
51 106 188 5 248 -63 37 -129 41 -185 12z"/>
<path d="M2055 3842 c3 -8 -4 -26 -17 -39 -19 -20 -23 -36 -23 -83 0 -51 4
-63 30 -90 40 -42 95 -55 165 -40 68 15 103 35 124 70 36 62 11 136 -57 172
-33 18 -61 22 -135 24 -80 1 -92 -1 -87 -14z m123 -138 c-9 -9 -21 -13 -27 -9
-16 10 -3 25 22 25 20 0 20 -1 5 -16z"/>
<path d="M1470 3694 c0 -8 5 -12 10 -9 6 3 10 10 10 16 0 5 -4 9 -10 9 -5 0
-10 -7 -10 -16z"/>
<path d="M1615 3650 c-9 -15 4 -30 26 -30 17 0 18 3 7 20 -14 22 -24 25 -33
10z"/>
<path d="M1258 3633 c6 -2 18 -2 25 0 6 3 1 5 -13 5 -14 0 -19 -2 -12 -5z"/>
<path d="M1724 3599 c-66 -25 -106 -67 -107 -112 -2 -91 102 -151 220 -127 42
9 65 21 99 54 41 39 44 46 44 93 0 54 -20 82 -73 102 -43 17 -126 12 -183 -10z"/>
<path d="M1545 3450 c3 -5 13 -10 21 -10 8 0 14 5 14 10 0 6 -9 10 -21 10 -11
0 -17 -4 -14 -10z"/>
<path d="M1320 3333 c-90 -14 -140 -58 -140 -122 0 -48 34 -100 80 -124 47
-25 172 -19 221 9 65 38 98 121 69 175 -23 41 -147 75 -230 62z"/>
<path d="M1715 3220 c3 -5 10 -10 16 -10 5 0 9 5 9 10 0 6 -7 10 -16 10 -8 0
-12 -4 -9 -10z"/>
<path d="M295 3525 c-20 -19 -25 -34 -25 -72 1 -82 63 -192 121 -212 28 -10
34 -8 60 18 22 23 29 39 29 70 0 164 -106 276 -185 196z"/>
<path d="M633 2819 c-30 -11 -43 -40 -43 -96 0 -68 18 -124 41 -130 22 -6 24
-14 8 -30 -13 -13 1 -44 34 -80 37 -42 99 -25 123 32 22 54 17 95 -25 181 -51
105 -91 141 -138 123z"/>
<path d="M1017 2182 c-44 -48 -42 -101 8 -205 47 -98 102 -122 156 -68 22 22
29 39 29 68 0 96 -83 223 -147 223 -16 0 -37 -8 -46 -18z m157 -161 c3 -5 0
-14 -8 -20 -10 -8 -16 -8 -25 3 -9 11 -9 15 1 19 20 8 26 8 32 -2z m-64 -31
c0 -5 -4 -10 -9 -10 -6 0 -13 5 -16 10 -3 6 1 10 9 10 9 0 16 -4 16 -10z"/>
<path d="M3975 3049 c-10 -15 3 -25 16 -12 7 7 7 13 1 17 -6 3 -14 1 -17 -5z"/>
<path d="M3772 2833 c-37 -7 -95 -73 -115 -130 -35 -98 -1 -178 95 -226 46
-24 64 -28 97 -22 51 8 98 40 129 85 20 29 23 45 20 95 -8 127 -116 221 -226
198z"/>
<path d="M2712 2615 c-46 -38 -82 -114 -82 -170 0 -68 30 -119 93 -155 58 -33
100 -37 154 -15 50 21 72 42 94 90 28 61 24 102 -17 170 -47 80 -74 98 -149
103 -55 4 -64 1 -93 -23z"/>
<path d="M3030 2621 c0 -5 9 -11 20 -14 13 -3 20 0 20 9 0 8 -9 14 -20 14 -11
0 -20 -4 -20 -9z"/>
<path d="M3120 2485 c0 -8 4 -15 9 -15 5 0 14 7 21 15 10 13 9 15 -9 15 -12 0
-21 -6 -21 -15z"/>
<path d="M3274 2246 c-63 -28 -121 -143 -108 -215 16 -90 91 -151 186 -151 96
0 159 60 166 159 4 50 0 65 -22 103 -60 103 -139 140 -222 104z"/>
<path d="M3810 1869 c-52 -30 -83 -83 -88 -151 -7 -87 4 -124 50 -174 99 -108
259 -89 322 37 53 107 25 204 -77 270 -52 34 -68 39 -116 39 -38 0 -67 -7 -91
-21z m20 -95 c0 -8 -4 -14 -10 -14 -5 0 -10 9 -10 21 0 11 5 17 10 14 6 -3 10
-13 10 -21z m220 -34 c0 -5 -4 -10 -10 -10 -5 0 -10 5 -10 10 0 6 5 10 10 10
6 0 10 -4 10 -10z m6 -75 c-23 -17 -36 -19 -36 -6 0 11 18 19 40 20 11 0 10
-3 -4 -14z"/>
<path d="M2867 1700 c-74 -22 -136 -105 -137 -180 0 -126 84 -219 198 -220 78
0 129 34 181 120 25 42 29 136 7 178 -45 87 -153 131 -249 102z"/>
<path d="M4100 1475 c0 -9 5 -15 11 -13 6 2 11 8 11 13 0 5 -5 11 -11 13 -6 2
-11 -4 -11 -13z"/>
<path d="M4053 1416 c4 -14 57 -21 57 -8 0 5 -14 12 -30 14 -19 3 -29 1 -27
-6z"/>
<path d="M4373 2713 c-15 -22 -18 -48 -18 -138 1 -97 4 -116 26 -159 31 -61
52 -77 75 -54 24 24 32 84 24 191 -12 155 -62 229 -107 160z"/>
<path d="M4554 2464 c-31 -73 -3 -273 40 -290 8 -3 24 -1 35 5 64 35 37 261
-37 309 -21 14 -23 13 -38 -24z"/>
<path d="M4497 1823 c-6 -16 -12 -70 -12 -123 1 -81 4 -103 25 -145 14 -27 33
-54 42 -59 40 -24 68 54 54 149 -6 36 -13 49 -33 58 -22 10 -23 12 -8 23 21
15 13 61 -16 99 -26 32 -37 32 -52 -2z m53 -23 c0 -5 -4 -10 -10 -10 -5 0 -10
5 -10 10 0 6 5 10 10 10 6 0 10 -4 10 -10z"/>
</g>
</svg>
